<?xml version="1.0" encoding="utf-8"?>
<!-- Generator: Adobe Illustrator 19.0.0, SVG Export Plug-In . SVG Version: 6.00 Build 0)  -->
<svg version="1.1" id="Camada_1" xmlns="http://www.w3.org/2000/svg" xmlns:xlink="http://www.w3.org/1999/xlink" x="0px" y="0px"
	 viewBox="-215.2 -860.3 1464.1 1447.3" style="enable-background:new -215.2 -860.3 1464.1 1447.3;" xml:space="preserve">
<style type="text/css">
	.st0{fill:#020202;stroke:#000000;stroke-miterlimit:10;}
	.st1{fill:#F94B54;}
	.st2{fill:none;stroke:#000000;stroke-miterlimit:10;}
</style>
<path id="XMLID_3_" class="st0" d="M215-448c-14.6,17.5-28.1,29.7-37.5,37.5c-14.3,11.8-21.7,15.6-32.5,26.5
	c-14,14.2-22.2,28.7-26.8,38.4c-0.7,0.7-4.7,4.6-11,4.6c-4,0-8-1.5-11-4.6C72.8-371,48.9-396.5,24.5-422c-8.5-8.9-17-17.7-25.5-26.5
	c-5.8-2.1-9.8-6.4-10.1-10.9c-0.2-3.4,1.6-7,1.8-7.2c0.7-1.4,1.6-2.6,2.8-3.8C11.7-482.8,24.4-495,32.6-504
	c8.4-9.2,20.8-24.3,31.5-38.5c0,0,11.2-9.7,32.2-30.7c0.7-0.7,4.7-4.6,11-4.6c4,0,8,1.5,11,4.6c23.5,28.1,49.3,56.5,77.8,84.7
	c6.2,6.1,12.3,12.1,18.5,18c4.8,2.2,7.8,6.9,7.5,12C221.8-454.1,219.1-450,215-448z"/>
<path id="XMLID_1_" class="st1" d="M186-453.9l-72.2,72.2c-3.6,3.6-9.5,3.6-13.1,0l-72.2-72.2c-3.6-3.6-3.6-9.5,0-13.1l72.2-72.2
	c3.6-3.6,9.5-3.6,13.1,0L186-467C189.6-463.4,189.6-457.6,186-453.9z"/>
<path id="XMLID_2_" class="st2" d="M58.5-253"/>
<path id="XMLID_7_" d="M105.4-371c-42.4,36-47.2,59.9-44.1,74.8c1.7,8.1,5.4,12.2,42.9,59.1c23.4,29.3,25.6,32.2,27.5,38.1
	c5,15.3,4.9,40.6-26.2,81c0,0,94-55.6,13-126.5s2.8-126.5,2.8-126.5H105.4z"/>
<path id="XMLID_12_" d="M38.4-423.7c-54.9,8.6-71.5,26.5-76.7,40.9c-2.8,7.8-1.7,13.2,5.8,72.7c4.7,37.2,5,40.8,3.6,46.8
	c-3.7,15.6-17,37.2-64.6,55.5c0,0,109.2,1.6,77-101.2s68.3-106.5,68.3-106.5L38.4-423.7z"/>
<path id="XMLID_6_" d="M146.5-390.5c44.1,21.9,57.7,43.4,62.1,58.7c2.4,8.3,1.6,13.4-3.4,69.8c-3.1,35.3-3.3,38.8-2.1,45
	c3.2,16.2,14.2,40.6,52.7,70.1c0,0-87.4-25.1-63.4-117.9c24.1-92.8-56.5-121-56.5-121L146.5-390.5z"/>
<path id="XMLID_9_" d="M28.1-434.7c-26.6-40.4-44.8-45.4-56.3-42.7c-6.3,1.4-9.4,4.9-46.1,39.2c-22.9,21.4-25.2,23.4-29.7,25.1
	c-11.8,4.4-31.1,3.9-61.4-26c0,0,40.5,89.2,96.4,14.4s96.6,4.8,96.6,4.8L28.1-434.7z"/>
<path id="XMLID_8_" d="M190.7-429.3c-6.6,42,2.4,56.7,11.5,62.4c5,3.1,9.1,3,53.7,5.1c27.8,1.3,30.6,1.5,34.5,3.3
	c10.4,4.8,22.8,17.4,24.8,55.3c0,0,26.7-81.1-54.8-70.4s-60.7-64.6-60.7-64.6L190.7-429.3z"/>
<path id="XMLID_13_" d="M49.3-516.4c8.3-41.7,0-56.7-8.9-62.8c-4.8-3.3-9-3.3-53.5-7.3c-27.8-2.4-30.5-2.8-34.4-4.8
	c-10.2-5.2-22.1-18.3-22.5-56.2c0,0-30,79.9,51.9,72.6c81.9-7.4,58,67,58,67L49.3-516.4z"/>
<path id="XMLID_10_" d="M207.4-457.4c38.8-14.7,60.6-11.1,73.1-5.4c6.8,3.1,9.7,6.3,44.3,40.1c21.6,21.1,23.8,23.1,28.6,25.8
	c12.5,6.9,34.7,13.6,75.4,6.5c0,0-64.9,39-112.9-26.1s-111.2-31.9-111.2-31.9L207.4-457.4z"/>
<path id="XMLID_11_" d="M158.1-513.6c20.7-36,39.8-47,53.1-50.6c7.3-1.9,11.5-1.3,59.7,2.9c30.1,2.6,33.1,2.8,38.4,1.8
	c14-2.6,35.4-11.5,62.4-42.9c0,0-25.4,71.3-103.8,51.5S161.7-505,161.7-505L158.1-513.6z"/>
<path id="XMLID_5_" d="M104.4-554c42.4-24.2,47.2-40.3,44.1-50.3c-1.7-5.5-5.4-8.2-42.9-39.7c-23.4-19.7-25.6-21.7-27.5-25.6
	c-5-10.3-4.9-27.3,26.2-54.4c0,0-94,37.4-13,85s-2.8,85-2.8,85H104.4z"/>
<path id="XMLID_14_" d="M107.9-415.3c-27.2,70.7,0-111.7,0-111.7S132.9-480.4,107.9-415.3z"/>
<path id="XMLID_92_" class="st0" d="M921-448c-14.6,17.5-28.1,29.7-37.5,37.5c-14.3,11.8-21.7,15.6-32.5,26.5
	c-14,14.2-22.2,28.7-26.8,38.4c-0.7,0.7-4.7,4.6-11,4.6c-4,0-8-1.5-11-4.6c-23.4-25.4-47.3-50.9-71.7-76.4
	c-8.5-8.9-17-17.7-25.5-26.5c-5.8-2.1-9.8-6.4-10.1-10.9c-0.2-3.4,1.6-7,1.8-7.2c0.7-1.4,1.6-2.6,2.8-3.8
	c18.2-12.4,30.9-24.6,39.1-33.6c8.4-9.2,20.8-24.3,31.5-38.5c0,0,11.2-9.7,32.2-30.7c0.7-0.7,4.7-4.6,11-4.6c4,0,8,1.5,11,4.6
	c23.5,28.1,49.3,56.5,77.8,84.7c6.2,6.1,12.3,12.1,18.5,18c4.8,2.2,7.8,6.9,7.5,12C927.8-454.1,925.1-450,921-448z"/>
<path id="XMLID_91_" class="st1" d="M892-453.9l-72.2,72.2c-3.6,3.6-9.5,3.6-13.1,0l-72.2-72.2c-3.6-3.6-3.6-9.5,0-13.1l72.2-72.2
	c3.6-3.6,9.5-3.6,13.1,0L892-467C895.6-463.4,895.6-457.6,892-453.9z"/>
<path id="XMLID_90_" class="st2" d="M764.5-253"/>
<path id="XMLID_89_" d="M812.5-371c42.4,36,47.2,59.9,44.1,74.8c-1.7,8.1-5.4,12.2-42.9,59.1c-23.4,29.3-25.6,32.2-27.5,38.1
	c-5,15.3-4.9,40.6,26.2,81c0,0-94-55.6-13-126.5S796.7-371,796.7-371H812.5z"/>
<path id="XMLID_88_" d="M742.2-419.7c3.8,44.5-6.1,66.5-15.5,78.2c-5.1,6.4-9.2,8.6-53.6,36.4c-27.7,17.4-30.4,19.2-34.5,23.5
	c-10.6,11.4-23.8,33-28.3,77.7c0,0-21.1-78.1,59-112.2S733.7-425,733.7-425L742.2-419.7z"/>
<path id="XMLID_87_" d="M854.5-393.6c-5.2,46.5,4.4,70,13.8,82.8c5.1,7,9.3,9.5,54.5,41c28.2,19.6,30.9,21.7,35,26.4
	c10.7,12.5,23.7,35.8,27,82.9c0,0,24.1-80.7-57.9-120.6s-63.6-117.4-63.6-117.4L854.5-393.6z"/>
<path id="XMLID_86_" d="M715.1-465.2c-26.6,40.4-44.8,45.4-56.3,42.7c-6.3-1.4-9.4-4.9-46.1-39.2c-22.9-21.4-25.2-23.4-29.7-25.1
	c-11.8-4.4-31.1-3.9-61.4,26c0,0,40.5-89.2,96.4-14.4s96.6-4.8,96.6-4.8L715.1-465.2z"/>
<path id="XMLID_85_" d="M902.7-441.8c32.1,3.7,45.5,14,51.8,22.5c3.4,4.6,4.2,7.9,14.5,43.8c6.5,22.4,7.2,24.6,9.4,28.2
	c5.8,9.3,18.3,21.9,48.8,31.6c0,0-59.2,3.8-66.7-58.7c-7.4-62.5-63.2-62.1-63.2-62.1L902.7-441.8z"/>
<path id="XMLID_84_" d="M756.1-517c-30.5-6.3-43.4-17.3-49.4-25.9c-3.3-4.7-4-7.9-14.1-43.1c-6.3-22-7-24.1-9.2-27.7
	c-5.6-9.4-17.6-22.5-46.6-34.3c0,0,56.3,1.4,63.8,61.7s60.5,64.7,60.5,64.7L756.1-517z"/>
<path id="XMLID_83_" d="M911.6-458.9c33,17.4,54.9,19.4,68.5,18c7.4-0.7,11.1-2.3,53.9-18c26.7-9.8,29.4-10.7,34.8-11.6
	c14-2.1,37.1-2.2,74.1,10.6c0,0-51-38.8-115.7-4.9s-115.7-0.7-115.7-0.7L911.6-458.9z"/>
<path id="XMLID_82_" d="M866.8-515.6c35.1-6.3,54.3-16.8,65.3-25c6-4.5,8.4-7.5,38-40.8c18.4-20.8,20.3-22.9,24.5-26.3
	c10.9-8.9,30.4-21.4,66.9-32.9c0,0-59.1,2-99.6,59s-97.8,61.7-97.8,61.7L866.8-515.6z"/>
<path id="XMLID_81_" d="M809.4-554c-42.4-24.2-47.2-40.3-44.1-50.3c1.7-5.5,5.4-8.2,42.9-39.7c23.4-19.7,25.6-21.7,27.5-25.6
	c5-10.3,4.9-27.3-26.2-54.4c0,0,94,37.4,13,85c-81.1,47.6,2.8,85,2.8,85H809.4z"/>
<path id="XMLID_80_" d="M813.9-415.3c-27.2,70.7,0-111.7,0-111.7S838.9-480.4,813.9-415.3z"/>
<path id="XMLID_131_" class="st0" d="M230,257c-14.6,17.5-28.1,29.7-37.5,37.5c-14.3,11.8-21.7,15.6-32.5,26.5
	c-14,14.2-22.2,28.7-26.8,38.4c-0.7,0.7-4.7,4.6-11,4.6c-4,0-8-1.5-11-4.6C87.8,334,63.9,308.5,39.5,283c-8.5-8.9-17-17.7-25.5-26.5
	c-5.8-2.1-9.8-6.4-10.1-10.9c-0.2-3.4,1.6-7,1.8-7.2c0.7-1.4,1.6-2.6,2.8-3.8C26.7,222.2,39.4,210,47.6,201
	c8.4-9.2,20.8-24.3,31.5-38.5c0,0,11.2-9.7,32.2-30.7c0.7-0.7,4.7-4.6,11-4.6c4,0,8,1.5,11,4.6c23.5,28.1,49.3,56.5,77.8,84.7
	c6.2,6.1,12.3,12.1,18.5,18c4.8,2.2,7.8,6.9,7.5,12C236.8,250.9,234.1,255,230,257z"/>
<path id="XMLID_130_" class="st1" d="M201,251.1l-72.2,72.2c-3.6,3.6-9.5,3.6-13.1,0l-72.2-72.2c-3.6-3.6-3.6-9.5,0-13.1l72.2-72.2
	c3.6-3.6,9.5-3.6,13.1,0L201,238C204.6,241.6,204.6,247.4,201,251.1z"/>
<path id="XMLID_129_" class="st2" d="M73.5,452"/>
<path id="XMLID_128_" d="M120.4,334c-42.4,29.7-47.2,49.4-44.1,61.7c1.7,6.7,5.4,10,42.9,48.7c23.4,24.1,25.6,26.6,27.5,31.4
	c5,12.6,4.9,33.5-26.2,66.8c0,0,94-45.8,13-104.3s2.8-104.3,2.8-104.3L120.4,334L120.4,334z"/>
<path id="XMLID_127_" d="M53.4,281.3c-59.1,15.4-78.4,37.9-85.3,55c-3.7,9.4-3.1,15.5-1,83.9c1.3,42.7,1.3,46.9-0.8,54
	c-5.4,18.5-21.6,44.9-74,70.8c0,0,115.6-9,91.6-125.1s82.9-130.4,82.9-130.4L53.4,281.3z"/>
<path id="XMLID_126_" d="M161.5,314.5c44.9,23.5,59,46.2,63.6,62.2c2.6,8.7,1.8,13.9-2.2,72.6c-2.5,36.6-2.7,40.3-1.3,46.7
	c3.5,16.9,15,42.4,54.4,73.8c0,0-88.6-27.7-66-123.7c22.6-96.1-59.1-126.8-59.1-126.8L161.5,314.5z"/>
<path id="XMLID_125_" d="M43.1,270.3c-19.5-40.2-32.9-45.1-41.5-42.4c-4.6,1.5-7,4.9-34.4,39.4c-17.1,21.5-18.8,23.6-22.2,25.3
	c-8.8,4.5-23.1,4.1-45.4-25.7c0,0,29.5,88.9,71.4,13.8s71.6,4.3,71.6,4.3L43.1,270.3z"/>
<path id="XMLID_124_" d="M205.7,275.7c-0.2,48.5,13.1,67.5,24.9,75.9c6.4,4.6,11.3,5.2,64.3,15.8c33.1,6.6,36.3,7.4,41.4,10.2
	c13.1,7.5,30.1,24.8,39.3,69.9c0,0,16.7-91.2-77.5-93.3s-83.3-87.5-83.3-87.5L205.7,275.7z"/>
<path id="XMLID_123_" d="M64.3,188.6c2.2-48.5-10.3-68-21.7-76.8c-6.2-4.8-11.1-5.6-63.5-18.4c-32.8-7.9-36-8.8-40.9-11.9
	c-12.8-8.1-29-26-36.4-71.4c0,0-20.5,90.4,73.5,96.3s79.6,90.8,79.6,90.8L64.3,188.6z"/>
<path id="XMLID_122_" d="M222.4,247.6c32.1-16.7,49.5-14.5,59.2-9.6c5.3,2.7,7.5,5.6,33.3,36.8c16.1,19.5,17.8,21.3,21.5,23.7
	c9.7,6,27.1,11.3,60.4,1.9c0,0-54.6,42.1-89.5-19s-87.7-24.8-87.7-24.8L222.4,247.6z"/>
<path id="XMLID_121_" d="M173.1,191.4c26.6-38.4,49.6-51.1,65.3-55.7c8.6-2.5,13.5-2.1,69.3-1.1c34.8,0.6,38.3,0.6,44.7-0.8
	c16.5-3.6,42-14.3,75.6-48.4c0,0-34.5,75.1-124.5,60.1S176.7,200,176.7,200L173.1,191.4z"/>
<path id="XMLID_120_" d="M119.4,151c42.4-20,47.2-33,44.1-41.2c-1.7-4.5-5.4-6.7-42.9-32.5C97.2,61.2,95,59.5,93.1,56.3
	c-5-8.4-4.9-22.4,26.2-44.7c0,0-94,30.6-13,69.7s-2.8,69.7-2.8,69.7H119.4z"/>
<path id="XMLID_119_" d="M122.9,289.7c-27.2,70.7,0-111.7,0-111.7S147.9,224.6,122.9,289.7z"/>
<path id="XMLID_183_" d="M719.5-463c0,0,123.8-16.3,192.1,4.1l-96.1-102.6L719.5-463z"/>
<path id="XMLID_184_" d="M114,151.4L20.6,242c0,0,86.8,102.5,93.4,104s108.4-98.4,108.4-98.4l-103-96.6"/>
</svg>
